<?xml version="1.0" encoding="UTF-8" standalone="no"?>
<svg
   width="100%"
   height="100%"
   viewBox="0 0 1146 1146"
   version="1.1"
   xml:space="preserve"
   style="fill-rule:evenodd;clip-rule:evenodd;stroke-linejoin:round;stroke-miterlimit:2;"
   id="svg9"
   sodipodi:docname="tasks.mac.logo.svg"
   inkscape:version="1.4.3 (0d15f75, 2025-12-25)"
   xmlns:inkscape="http://www.inkscape.org/namespaces/inkscape"
   xmlns:sodipodi="http://sodipodi.sourceforge.net/DTD/sodipodi-0.dtd"
   xmlns:xlink="http://www.w3.org/1999/xlink"
   xmlns="http://www.w3.org/2000/svg"
   xmlns:svg="http://www.w3.org/2000/svg"><defs
   id="defs9"><linearGradient
     id="linearGradient29"
     inkscape:collect="always"><stop
       style="stop-color:#000000;stop-opacity:1;"
       offset="0"
       id="stop29" /><stop
       style="stop-color:#000000;stop-opacity:0;"
       offset="1"
       id="stop30" /></linearGradient><radialGradient
     inkscape:collect="always"
     xlink:href="#linearGradient29"
     id="radialGradient30"
     cx="137.49232"
     cy="137.49484"
     fx="137.49232"
     fy="137.49484"
     r="140.35069"
     gradientUnits="userSpaceOnUse" /></defs><sodipodi:namedview
   id="namedview9"
   pagecolor="#ffffff"
   bordercolor="#000000"
   borderopacity="0.25"
   inkscape:showpageshadow="2"
   inkscape:pageopacity="0.0"
   inkscape:pagecheckerboard="0"
   inkscape:deskcolor="#d1d1d1"
   inkscape:zoom="0.45879039"
   inkscape:cx="477.34217"
   inkscape:cy="527.474"
   inkscape:window-width="1728"
   inkscape:window-height="973"
   inkscape:window-x="0"
   inkscape:window-y="33"
   inkscape:window-maximized="1"
   inkscape:current-layer="svg9" />
    <g
   transform="matrix(0.70279939,0,0,0.70279939,92.683745,56.914588)"
   id="g9">
        <g
   transform="matrix(5.7286,0,0,5.7286,0.00591818,0.00845455)"
   id="g7">
            <rect
   x="0"
   y="0"
   width="48"
   height="48"
   style="fill:none;fill-rule:nonzero"
   id="rect1" />
            <clipPath
   id="_clip1">
                <rect
   x="0"
   y="0"
   width="48"
   height="48"
   clip-rule="nonzero"
   id="rect2" />
            </clipPath>
            <g
   clip-path="url(#_clip1)"
   id="g6">
                <g
   transform="matrix(1.75152,0,0,1.75152,-17.5374,-19.7413)"
   id="g5">
                    <circle
   cx="23.709999"
   cy="24.950001"
   r="13.694"
   style="fill:#2196f3"
   id="circle2" />
                    <clipPath
   id="_clip2">
                        <circle
   cx="23.709999"
   cy="24.950001"
   r="13.694"
   id="circle3" />
                    </clipPath>
                    <g
   clip-path="url(#_clip2)"
   id="g4">
                        <g
   transform="matrix(0.571521,0,0,0.571521,9.9986,11.2509)"
   id="g3">
                            <path
   d="M 18,32.34 9.66,24 6.83,26.83 48,68 72,44 39.17,11.17 Z"
   style="fill-opacity:0.15;fill-rule:nonzero"
   id="path3" />
                        </g>
                    </g>
                </g>
            </g>
        </g>
        <g
   transform="matrix(5.7345,0,0,5.7345,-0.135489,-0.193556)"
   id="g8">
            <path
   d="M 18,32.34 9.66,24 6.83,26.83 18,38 42,14 39.17,11.17 Z"
   style="fill:#ffffff;fill-rule:nonzero"
   id="path7" />
        </g>
    </g>
<rect
   style="fill:#c4c4c4;fill-opacity:1"
   id="rect9"
   width="650.79138"
   height="87.278145"
   x="343.13821"
   y="110.04636" /><g
   transform="matrix(0.70279939,0,0,0.70279939,92.683745,56.914588)"
   id="g18">
        <g
   transform="matrix(5.7286,0,0,5.7286,0.00591818,0.00845455)"
   id="g16">
            <rect
   x="0"
   y="0"
   width="48"
   height="48"
   style="fill:none;fill-rule:nonzero"
   id="rect10" />
            <clipPath
   id="clipPath11">
                <rect
   x="0"
   y="0"
   width="48"
   height="48"
   clip-rule="nonzero"
   id="rect11" />
            </clipPath>
            <g
   clip-path="url(#_clip1)"
   id="g15">
                <g
   transform="matrix(1.75152,0,0,1.75152,-17.5374,-19.7413)"
   id="g14">
                    <circle
   cx="23.709999"
   cy="24.950001"
   r="13.694"
   style="fill:#2196f3"
   id="circle11" />
                    <clipPath
   id="clipPath12">
                        <circle
   cx="23.709999"
   cy="24.950001"
   r="13.694"
   id="circle12" />
                    </clipPath>
                    <g
   clip-path="url(#_clip2)"
   id="g13">
                        <g
   transform="matrix(0.571521,0,0,0.571521,9.9986,11.2509)"
   id="g12">
                            <path
   d="M 18,32.34 9.66,24 6.83,26.83 48,68 72,44 39.17,11.17 Z"
   style="fill-opacity:0.15;fill-rule:nonzero"
   id="path12" />
                        </g>
                    </g>
                </g>
            </g>
        </g>
        <g
   transform="matrix(5.7345,0,0,5.7345,-0.135489,-0.193556)"
   id="g17">
            <path
   d="M 18,32.34 9.66,24 6.83,26.83 18,38 42,14 39.17,11.17 Z"
   style="fill:#ffffff;fill-rule:nonzero"
   id="path16" />
        </g>
    </g><rect
   style="fill:#c4c4c4;fill-opacity:1"
   id="rect18"
   width="650.79138"
   height="87.278145"
   x="343.13821"
   y="110.04636" /><g
   transform="matrix(0.70279939,0,0,0.70279939,92.683745,383.25896)"
   id="g27"
   style="stroke:none;stroke-opacity:1">
        <g
   transform="matrix(5.7286,0,0,5.7286,0.00591818,0.00845455)"
   id="g25"
   style="stroke:none;stroke-opacity:1">
            <rect
   x="0"
   y="0"
   width="48"
   height="48"
   style="fill:none;fill-rule:nonzero;stroke:none;stroke-opacity:1"
   id="rect19" />
            <clipPath
   id="clipPath20"
   style="stroke:url(#radialGradient30)">
                <rect
   x="0"
   y="0"
   width="48"
   height="48"
   clip-rule="nonzero"
   id="rect20"
   style="stroke:url(#radialGradient30)" />
            </clipPath>
            <g
   clip-path="url(#_clip1)"
   id="g24"
   style="stroke:none;stroke-opacity:1">
                <g
   transform="matrix(1.75152,0,0,1.75152,-17.5374,-19.7413)"
   id="g23"
   style="stroke:none;stroke-opacity:1">
                    <circle
   cx="23.709999"
   cy="24.950001"
   r="13.694"
   style="fill:#2196f3;stroke:none;stroke-opacity:1"
   id="circle20" />
                    <clipPath
   id="clipPath21"
   style="stroke:url(#radialGradient30)">
                        <circle
   cx="23.709999"
   cy="24.950001"
   r="13.694"
   id="circle21"
   style="stroke:url(#radialGradient30)" />
                    </clipPath>
                    <g
   clip-path="url(#_clip2)"
   id="g22"
   style="stroke:none;stroke-opacity:1">
                        <g
   transform="matrix(0.571521,0,0,0.571521,9.9986,11.2509)"
   id="g21"
   style="stroke:none;stroke-opacity:1">
                            <path
   d="M 18,32.34 9.66,24 6.83,26.83 48,68 72,44 39.17,11.17 Z"
   style="fill-opacity:0.15;fill-rule:nonzero;stroke:none;stroke-opacity:1"
   id="path21" />
                        </g>
                    </g>
                </g>
            </g>
        </g>
        <g
   transform="matrix(5.7345,0,0,5.7345,-0.135489,-0.193556)"
   id="g26"
   style="stroke:none;stroke-opacity:1">
            <path
   d="M 18,32.34 9.66,24 6.83,26.83 18,38 42,14 39.17,11.17 Z"
   style="fill:#ffffff;fill-rule:nonzero;stroke:none;stroke-opacity:1"
   id="path25" />
        </g>
    </g><rect
   style="fill:#c4c4c4;fill-opacity:1"
   id="rect27"
   width="650.79138"
   height="87.278145"
   x="343.13821"
   y="436.39075" /><g
   transform="matrix(0.70279939,0,0,0.70279939,92.683745,703.66672)"
   id="g40"
   style="stroke:none;stroke-opacity:1">
        <g
   transform="matrix(5.7286,0,0,5.7286,0.00591818,0.00845455)"
   id="g38"
   style="stroke:none;stroke-opacity:1">
            <rect
   x="0"
   y="0"
   width="48"
   height="48"
   style="fill:none;fill-rule:nonzero;stroke:none;stroke-opacity:1"
   id="rect32" />
            <clipPath
   id="clipPath33"
   style="stroke:url(#radialGradient30)">
                <rect
   x="0"
   y="0"
   width="48"
   height="48"
   clip-rule="nonzero"
   id="rect33"
   style="stroke:url(#radialGradient30)" />
            </clipPath>
            <g
   clip-path="url(#_clip1)"
   id="g37"
   style="stroke:none;stroke-opacity:1">
                <g
   transform="matrix(1.75152,0,0,1.75152,-17.5374,-19.7413)"
   id="g36"
   style="stroke:none;stroke-opacity:1">
                    <circle
   cx="23.709999"
   cy="24.950001"
   r="13.694"
   style="fill:#2196f3;stroke:none;stroke-opacity:1"
   id="circle33" />
                    <clipPath
   id="clipPath34"
   style="stroke:url(#radialGradient30)">
                        <circle
   cx="23.709999"
   cy="24.950001"
   r="13.694"
   id="circle34"
   style="stroke:url(#radialGradient30)" />
                    </clipPath>
                    <g
   clip-path="url(#_clip2)"
   id="g35"
   style="stroke:none;stroke-opacity:1">
                        <g
   transform="matrix(0.571521,0,0,0.571521,9.9986,11.2509)"
   id="g34"
   style="stroke:none;stroke-opacity:1">
                            <path
   d="M 18,32.34 9.66,24 6.83,26.83 48,68 72,44 39.17,11.17 Z"
   style="fill-opacity:0.15;fill-rule:nonzero;stroke:none;stroke-opacity:1"
   id="path34" />
                        </g>
                    </g>
                </g>
            </g>
        </g>
        <g
   transform="matrix(5.7345,0,0,5.7345,-0.135489,-0.193556)"
   id="g39"
   style="stroke:none;stroke-opacity:1">
            <path
   d="M 18,32.34 9.66,24 6.83,26.83 18,38 42,14 39.17,11.17 Z"
   style="fill:#ffffff;fill-rule:nonzero;stroke:none;stroke-opacity:1"
   id="path38" />
        </g>
    </g><rect
   style="fill:#c4c4c4;fill-opacity:1"
   id="rect40"
   width="650.79138"
   height="87.278145"
   x="343.13821"
   y="756.79852" /></svg>
